<?xml version="1.0" encoding="utf-8"?>
<!-- Generator: Adobe Illustrator 16.0.0, SVG Export Plug-In . SVG Version: 6.00 Build 0)  -->
<!DOCTYPE svg PUBLIC "-//W3C//DTD SVG 1.1//EN" "http://www.w3.org/Graphics/SVG/1.1/DTD/svg11.dtd">
<svg version="1.1" id="Layer_1" xmlns="http://www.w3.org/2000/svg" xmlns:xlink="http://www.w3.org/1999/xlink" x="0px" y="0px"
	 width="197.176px" height="196.278px" viewBox="0 0 197.176 196.278" enable-background="new 0 0 197.176 196.278"
	 xml:space="preserve">
<path fill="#995933" d="M90.456,196.278c-0.061,0-0.123-0.002-0.186-0.008l-27.251-2.516c-1.011-0.093-1.791-0.93-1.815-1.944
	l-0.441-18.821c-5.281-2.524-10.029-5.881-14.144-10.002l-17.874,5.832c-0.963,0.316-2.013-0.143-2.437-1.065l-11.436-24.856
	c-0.424-0.922-0.09-2.017,0.777-2.544l16.061-9.781c-0.442-5.818,0.098-11.604,1.61-17.236l-14.005-12.58
	c-0.755-0.679-0.882-1.816-0.295-2.645l15.819-22.33c0.587-0.827,1.701-1.085,2.591-0.598l16.505,9.019
	c2.399-1.635,4.938-3.07,7.56-4.277c2.622-1.206,5.365-2.198,8.167-2.958l3.89-18.402c0.209-0.993,1.115-1.674,2.142-1.578
	l27.25,2.517c1.011,0.093,1.792,0.93,1.815,1.944l0.44,18.822c5.292,2.535,10.04,5.892,14.144,10l17.875-5.831
	c0.963-0.32,2.013,0.143,2.438,1.065l11.43,24.846c0.424,0.922,0.09,2.015-0.776,2.544l-16.059,9.779
	c0.449,5.788-0.091,11.578-1.608,17.247l14.005,12.581c0.756,0.679,0.883,1.816,0.296,2.645l-15.821,22.33
	c-0.586,0.828-1.699,1.088-2.59,0.598l-16.505-9.019c-2.401,1.635-4.939,3.07-7.561,4.276c-2.623,1.206-5.364,2.199-8.166,2.959
	l-3.89,18.402C92.214,195.624,91.393,196.278,90.456,196.278 M65.161,189.935l23.704,2.188l3.779-17.873
	c0.157-0.751,0.733-1.346,1.479-1.528c2.98-0.731,5.897-1.748,8.671-3.025c2.771-1.274,5.442-2.828,7.938-4.617
	c0.625-0.447,1.451-0.497,2.124-0.129l16.029,8.761l13.763-19.424l-13.605-12.221c-0.573-0.515-0.799-1.313-0.582-2.052
	c1.751-5.968,2.321-12.091,1.695-18.197c-0.078-0.768,0.291-1.511,0.95-1.913l15.601-9.501l-9.941-21.609l-17.365,5.664
	c-0.735,0.239-1.538,0.036-2.069-0.523c-4.23-4.449-9.251-7.999-14.923-10.551c-0.702-0.317-1.16-1.008-1.178-1.777l-0.429-18.284
	l-23.705-2.189L73.32,79.009c-0.159,0.751-0.734,1.346-1.48,1.528c-2.981,0.731-5.899,1.748-8.672,3.024
	c-2.771,1.275-5.442,2.828-7.937,4.617c-0.625,0.448-1.452,0.498-2.125,0.13l-16.03-8.761L23.314,98.972l13.604,12.221
	c0.573,0.515,0.8,1.313,0.582,2.053c-1.745,5.922-2.316,12.042-1.699,18.19c0.077,0.766-0.292,1.507-0.949,1.908l-15.602,9.5
	l9.947,21.62l17.365-5.665c0.733-0.24,1.538-0.034,2.069,0.523c4.243,4.463,9.263,8.013,14.919,10.551
	c0.703,0.317,1.163,1.008,1.182,1.778L65.161,189.935z M83.128,155.721c-9.836,0-19.451-5.035-24.784-13.603
	c-4.826-7.756-5.792-17.08-2.648-25.581c3.144-8.5,9.942-14.951,18.656-17.7c12.403-3.915,26.395,1.261,33.269,12.304
	c4.827,7.756,5.792,17.079,2.648,25.58c-3.144,8.5-9.943,14.952-18.654,17.701C88.833,155.3,85.97,155.721,83.128,155.721
	 M61.74,140.005c5.924,9.516,17.979,13.976,28.669,10.603c7.525-2.375,13.396-7.943,16.108-15.275
	c2.711-7.333,1.876-15.38-2.295-22.079c-5.921-9.517-17.978-13.972-28.669-10.603c-7.523,2.375-13.395,7.942-16.106,15.274
	C56.735,125.258,57.571,133.306,61.74,140.005z"/>
<path fill="#BA8458" d="M151.975,86.696c-0.702,0-1.379-0.371-1.742-1.015l-5.51-9.747c-3.392,0.097-6.735-0.314-9.981-1.249
	l-7.738,8.07c-0.703,0.732-1.844,0.822-2.65,0.209l-13.505-10.236c-0.809-0.613-1.029-1.735-0.514-2.609l5.68-9.633
	c-1.775-2.879-3.082-5.986-3.895-9.267l-10.872-2.67c-0.987-0.242-1.634-1.185-1.508-2.193l2.12-16.815
	c0.127-1.001,0.978-1.75,1.983-1.75h0.02l11.186,0.102c0.803-1.482,1.716-2.904,2.729-4.238c1.013-1.336,2.134-2.6,3.343-3.771
	l-3.121-10.742c-0.283-0.975,0.209-2.006,1.145-2.401l15.617-6.584c0.938-0.394,2.019-0.024,2.519,0.859l5.509,9.747
	c3.398-0.107,6.745,0.315,9.981,1.248l7.737-8.07c0.703-0.733,1.845-0.822,2.651-0.21l13.499,10.233
	c0.809,0.613,1.03,1.735,0.514,2.609l-5.679,9.63c1.772,2.864,3.079,5.974,3.897,9.273l10.873,2.671
	c0.987,0.243,1.636,1.185,1.509,2.193l-2.12,16.815c-0.126,1.001-0.978,1.75-1.984,1.75h-0.018l-11.187-0.102
	c-0.803,1.483-1.718,2.904-2.728,4.237c-1.012,1.334-2.132,2.599-3.344,3.772l3.119,10.743c0.284,0.974-0.208,2.005-1.143,2.4
	l-15.617,6.584C152.497,86.646,152.234,86.696,151.975,86.696 M145.857,71.875c0.717,0,1.384,0.386,1.74,1.016l5.24,9.27l12.335-5.2
	l-2.967-10.214c-0.214-0.737,0.013-1.532,0.585-2.046c1.381-1.239,2.645-2.611,3.754-4.077h0.001c1.111-1.466,2.09-3.053,2.91-4.717
	c0.34-0.687,1.058-1.163,1.813-1.115l10.636,0.097l1.674-13.282l-10.34-2.54c-0.748-0.183-1.324-0.78-1.481-1.534
	c-0.767-3.674-2.205-7.094-4.273-10.164c-0.432-0.64-0.456-1.47-0.064-2.134l5.401-9.16l-10.66-8.08l-7.36,7.675
	c-0.532,0.557-1.339,0.759-2.071,0.514c-3.514-1.162-7.194-1.619-10.94-1.369c-0.757,0.047-1.498-0.34-1.877-1.01l-5.239-9.27
	l-12.336,5.2l2.967,10.214c0.215,0.737-0.013,1.533-0.585,2.046c-1.377,1.236-2.641,2.607-3.754,4.076
	c-1.111,1.467-2.092,3.054-2.911,4.717c-0.337,0.684-1.032,1.116-1.794,1.116h-0.018l-10.636-0.096l-1.674,13.281l10.341,2.54
	c0.748,0.183,1.323,0.781,1.48,1.536c0.756,3.646,2.193,7.065,4.271,10.161c0.429,0.639,0.453,1.467,0.062,2.13l-5.4,9.16
	L125.35,78.7l7.359-7.675c0.533-0.555,1.339-0.756,2.071-0.513c3.529,1.167,7.211,1.628,10.938,1.368
	C145.764,71.877,145.812,71.875,145.857,71.875 M143.689,62.104c-3.193,0-6.395-0.797-9.247-2.443
	c-5.107-2.944-8.493-7.957-9.291-13.752c-0.798-5.796,1.108-11.537,5.229-15.752c5.87-6.005,15.413-7.32,22.688-3.122
	c5.106,2.944,8.492,7.957,9.29,13.752c0.798,5.796-1.108,11.536-5.229,15.751C153.562,60.188,148.636,62.104,143.689,62.104
	 M143.802,28.579c-3.888,0-7.757,1.507-10.561,4.375c-3.251,3.324-4.755,7.848-4.127,12.409c0.627,4.562,3.298,8.51,7.326,10.833
	c5.718,3.298,13.215,2.265,17.829-2.455c3.25-3.324,4.754-7.847,4.126-12.408c-0.627-4.562-3.298-8.511-7.325-10.833
	C148.827,29.207,146.312,28.579,143.802,28.579"/>
</svg>
