<svg id="Слой_1" data-name="Слой 1" xmlns="http://www.w3.org/2000/svg" fill="#995933" viewBox="0 0 100 100"><title>testМонтажная область 14</title><path d="M88,77.5H83.5V16A1.5,1.5,0,0,0,82,14.5H68A1.5,1.5,0,0,0,66.5,16V77.5h-8V39A1.5,1.5,0,0,0,57,37.5H43A1.5,1.5,0,0,0,41.5,39V77.5h-8V61A1.5,1.5,0,0,0,32,59.5H18A1.5,1.5,0,0,0,16.5,61V77.5H12a1.5,1.5,0,0,0,0,3H88a1.5,1.5,0,0,0,0-3Zm-18.5-60h11v60h-11Zm-25,23h11v37h-11Zm-25,22h11v15h-11Z"/><path d="M13,49.5a1.5,1.5,0,0,0,1.06-.44L55.5,7.62V14a1.5,1.5,0,0,0,3,0V4a1.49,1.49,0,0,0-.11-.55v0a1.5,1.5,0,0,0-.82-.82h0A1.49,1.49,0,0,0,57,2.5H47a1.5,1.5,0,0,0,0,3h6.38L11.94,46.94A1.5,1.5,0,0,0,13,49.5Z"/></svg>