<?xml version="1.0" encoding="UTF-8"?>
<!DOCTYPE svg PUBLIC "-//W3C//DTD SVG 1.1//EN" "http://www.w3.org/Graphics/SVG/1.1/DTD/svg11.dtd">
<!-- Creator: CorelDRAW -->
<svg xmlns="http://www.w3.org/2000/svg" xml:space="preserve" width="64" height="64" style="shape-rendering:geometricPrecision; text-rendering:geometricPrecision; image-rendering:optimizeQuality; fill-rule:evenodd; clip-rule:evenodd"
viewBox="0 0 6.72 6.72"
 xmlns:xlink="http://www.w3.org/1999/xlink">
 <defs>
  <style type="text/css">
   <![CDATA[
    .fil3 {fill:none}
    .fil1 {fill:url(#id0);fill-rule:nonzero}
    .fil2 {fill:url(#id1);fill-rule:nonzero}
    .fil0 {fill:url(#id2);fill-rule:nonzero}
   ]]>
  </style>
  <linearGradient id="id0" gradientUnits="userSpaceOnUse" x1="1.21984" y1="3.26034" x2="5.87028" y2="3.26034">
   <stop offset="0" style="stop-color:#995933"/>
   <stop offset="1" style="stop-color:#BA8458"/>
  </linearGradient>
  <linearGradient id="id1" gradientUnits="userSpaceOnUse" xlink:href="#id0" x1="1.62277" y1="3.26034" x2="5.46735" y2="3.26034">
  </linearGradient>
  <linearGradient id="id2" gradientUnits="userSpaceOnUse" xlink:href="#id0" x1="2.94865" y1="3.26035" x2="4.2386" y2="3.26035">
  </linearGradient>
 </defs>
 <g id="Layer_x0020_1">
  <metadata id="CorelCorpID_0Corel-Layer"/>
  <path class="fil0" d="M3.52963 4.46497l0 -0.239201c-0.119827,-0.0149764 -0.216957,-0.0417559 -0.29185,-0.0803386 -0.0748898,-0.0385787 -0.139799,-0.101217 -0.194264,-0.187 -0.0544685,-0.0862402 -0.0862402,-0.191091 -0.0948622,-0.315l0.240559 -0.0453898c0.0186102,0.128449 0.0512913,0.222858 0.0984961,0.283228 0.0671732,0.0853307 0.147969,0.132535 0.241921,0.142067l0 -0.76163c-0.0984921,-0.0186063 -0.198803,-0.0567362 -0.301835,-0.114378 -0.0762559,-0.0426654 -0.134807,-0.101673 -0.17611,-0.177016 -0.0413031,-0.0753465 -0.0617283,-0.160677 -0.0617283,-0.256449 0,-0.170209 0.0603661,-0.308193 0.180646,-0.413492 0.0807953,-0.0712638 0.200622,-0.114382 0.359028,-0.130268l0 -0.114382 0.141161 0 0 0.114382c0.13889,0.0131614 0.249638,0.0540118 0.330886,0.122094 0.104846,0.0866929 0.167484,0.206067 0.188819,0.357665l-0.24737 0.0372205c-0.0140709,-0.0939567 -0.0435748,-0.166126 -0.0885118,-0.216051 -0.0444803,-0.0499291 -0.105756,-0.083063 -0.183823,-0.0989488l0 0.689913c0.12028,0.0304094 0.200165,0.0540118 0.239201,0.0708071 0.074437,0.0326772 0.135256,0.072622 0.182008,0.11937 0.0472047,0.0472047 0.0835157,0.103035 0.10848,0.167488 0.0254173,0.0649055 0.038126,0.134803 0.038126,0.21015 0,0.166122 -0.0531063,0.304106 -0.158406,0.414854 -0.105303,0.111205 -0.241925,0.170209 -0.409409,0.178378l0 0.241925 -0.141161 0zm0 -2.09561c-0.0930472,0.0140709 -0.166575,0.0512913 -0.220134,0.111657 -0.0535591,0.0603661 -0.0803386,0.13163 -0.0803386,0.214236 0,0.081248 0.0226929,0.149783 0.0685354,0.204705 0.0458425,0.0549213 0.123004,0.0989488 0.231937,0.131626l0 -0.662224zm0.141161 1.65398c0.0930472,-0.0113465 0.169756,-0.0517441 0.230575,-0.120736 0.0608228,-0.0689921 0.0912323,-0.154776 0.0912323,-0.256902 0,-0.0866929 -0.0217874,-0.156591 -0.0644528,-0.209244 -0.0431181,-0.0526496 -0.128906,-0.0998543 -0.257354,-0.14161l0 0.728492z"/>
  <path class="fil1" d="M3.54506 0.935126c0.642083,0 1.22339,0.260264 1.64417,0.681047 0.420783,0.42078 0.681047,1.00209 0.681047,1.64417 0,0.642083 -0.260264,1.22339 -0.681047,1.64417 -0.42078,0.420783 -1.00209,0.681047 -1.64417,0.681047 -0.642083,0 -1.22339,-0.260264 -1.64417,-0.681047 -0.420783,-0.42078 -0.681047,-1.00209 -0.681047,-1.64417 0,-0.642083 0.260264,-1.22339 0.681047,-1.64417 0.42078,-0.420783 1.00209,-0.681047 1.64417,-0.681047zm1.53104 0.794173c-0.391819,-0.391823 -0.93313,-0.634173 -1.53104,-0.634173 -0.597913,0 -1.13922,0.24235 -1.53104,0.634173 -0.391823,0.391819 -0.634173,0.93313 -0.634173,1.53104 0,0.597913 0.24235,1.13922 0.634173,1.53104 0.391819,0.391823 0.93313,0.634173 1.53104,0.634173 0.597913,0 1.13922,-0.24235 1.53104,-0.634173 0.391823,-0.391819 0.634173,-0.93313 0.634173,-1.53104 0,-0.597913 -0.24235,-1.13922 -0.634173,-1.53104z"/>
  <path class="fil2" d="M3.54506 1.33806c0.530815,0 1.01139,0.215165 1.35926,0.563031 0.347866,0.347866 0.563031,0.828441 0.563031,1.35926 0,0.530815 -0.215165,1.01139 -0.563031,1.35926 -0.347866,0.347866 -0.828441,0.563031 -1.35926,0.563031 -0.530815,0 -1.01139,-0.215165 -1.35926,-0.563031 -0.347866,-0.347866 -0.563031,-0.828441 -0.563031,-1.35926 0,-0.530815 0.215165,-1.01139 0.563031,-1.35926 0.347866,-0.347866 0.828441,-0.563031 1.35926,-0.563031zm1.24613 0.676157c-0.318906,-0.318906 -0.759484,-0.516157 -1.24613,-0.516157 -0.486646,0 -0.927224,0.197252 -1.24613,0.516157 -0.318906,0.318906 -0.516157,0.759484 -0.516157,1.24613 0,0.486646 0.197252,0.927224 0.516157,1.24613 0.318906,0.318906 0.759484,0.516157 1.24613,0.516157 0.486646,0 0.927224,-0.197252 1.24613,-0.516157 0.318906,-0.318906 0.516157,-0.759484 0.516157,-1.24613 0,-0.486646 -0.197252,-0.927224 -0.516157,-1.24613z"/>
 </g>
 <rect class="fil3" />
</svg>
