<?xml version="1.0" encoding="UTF-8" standalone="no"?> <svg id="Layer_1" data-name="Layer 1" stroke="#995933" xmlns="http://www.w3.org/2000/svg" viewBox="0 0 128 128"><defs><style>.cls-1{fill:#995933;}.cls-2{fill:#995933;}</style></defs><title>b</title><path class="cls-1" d="M50.76057,85.448a13.25785,13.25785,0,0,0-2.82808-1.89339,32.17224,32.17224,0,0,0-3.54612-1.52619q-1.26243-.43654-2.15387-.807a9.58055,9.58055,0,0,1-1.501-.7622,2.60484,2.60484,0,0,1-.892-.892,2.386,2.386,0,0,1-.2827-1.19636,2.18976,2.18976,0,0,1,.91365-1.82759,5.03162,5.03162,0,0,1,3.002-.696,17.75114,17.75114,0,0,1,3.98117.43487,20.14188,20.14188,0,0,1,3.32859,1.04435l1.349-5.22107a17.24061,17.24061,0,0,0-2.58892-.87024,24.45864,24.45864,0,0,0-3.89434-.65271v-4.525H40.16579v4.69909a10.95807,10.95807,0,0,0-3.30668,1.10952,7.38679,7.38679,0,0,0-2.26261,1.84906,7.30924,7.30924,0,0,0-1.2835,2.41466,9.22988,9.22988,0,0,0-.41339,2.76319,6.66084,6.66084,0,0,0,2.45851,5.4386,11.30485,11.30485,0,0,0,2.47983,1.54458q1.37095.63122,2.80645,1.15309,1.4789.52228,2.61052.97883a11.25238,11.25238,0,0,1,1.87116.93557,3.83782,3.83782,0,0,1,1.13118,1.066,2.4922,2.4922,0,0,1,.39145,1.4142,2.36274,2.36274,0,0,1-.97883,2.02317,6.5297,6.5297,0,0,1-3.63324.71776,15.98683,15.98683,0,0,1-4.45977-.609,22.86648,22.86648,0,0,1-3.633-1.34868l-1.87085,5.00355a29.65488,29.65488,0,0,0,2.93683,1.19639,20.34935,20.34935,0,0,0,5.1559.97914v5.1775h5.48214V99.25552a11.48835,11.48835,0,0,0,3.58969-1.13059A7.98969,7.98969,0,0,0,51.609,96.25467a6.70166,6.70166,0,0,0,1.3051-2.3699,8.81556,8.81556,0,0,0,.39179-2.58742,7.80507,7.80507,0,0,0-.6745-3.34876A7.718,7.718,0,0,0,50.76057,85.448Z"/><path class="cls-1" d="M71.339,88.17965A28.79619,28.79619,0,1,1,39.82029,56.66089,46.89164,46.89164,0,0,1,37.8205,45.67623,39.93031,39.93031,0,1,0,82.32377,90.1795,46.89273,46.89273,0,0,1,71.339,88.17965Z"/><path class="cls-2" d="M85.30914,2.76138a39.92948,39.92948,0,1,0,39.92948,39.92948A39.97472,39.97472,0,0,0,85.30914,2.76138Zm10.22877,48.5029a6.84144,6.84144,0,0,1-1.31088,2.373,8.027,8.027,0,0,1-2.373,1.86588,11.23424,11.23424,0,0,1-3.5882,1.12908v5.31052H82.783V56.76619a20.17312,20.17312,0,0,1-5.14788-.976,29.90311,29.90311,0,0,1-2.93755-1.19607l1.86588-5.00432a24.01,24.01,0,0,0,3.636,1.34914,16.14061,16.14061,0,0,0,4.459.60282,6.558,6.558,0,0,0,3.636-.71764,2.35644,2.35644,0,0,0,.976-2.01895,2.51144,2.51144,0,0,0-.39228-1.41612,3.7872,3.7872,0,0,0-1.12908-1.06215,11.00541,11.00541,0,0,0-1.87545-.9377c-.75589-.3062-1.62666-.6315-2.61219-.98559-.95685-.34445-1.885-.72716-2.80357-1.14818a11.61392,11.61392,0,0,1-2.47828-1.54058,6.65391,6.65391,0,0,1-2.45912-5.4445,9.21675,9.21675,0,0,1,.41144-2.76526,7.51186,7.51186,0,0,1,1.28221-2.41129,7.40942,7.40942,0,0,1,2.26774-1.84672,10.888,10.888,0,0,1,3.30116-1.11V23.439h5.48275v4.5259a24.35407,24.35407,0,0,1,3.8944.65065,17.219,17.219,0,0,1,2.59309.87077l-1.3492,5.21486a21.107,21.107,0,0,0-3.32983-1.043,17.87341,17.87341,0,0,0-3.98048-.4306,4.99656,4.99656,0,0,0-3.00453.69854,2.19308,2.19308,0,0,0-.909,1.82756,2.48158,2.48158,0,0,0,.27747,1.19607,2.58088,2.58088,0,0,0,.89944.88987,8.98587,8.98587,0,0,0,1.49269.756c.59324.24873,1.32046.51668,2.15292.8133a32.17364,32.17364,0,0,1,3.54995,1.52142A13.53031,13.53031,0,0,1,93.385,42.82483a7.50065,7.50065,0,0,1,2.5452,5.85594A8.9103,8.9103,0,0,1,95.53791,51.26428Z"/></svg>