<svg id="Слой_1" data-name="Слой 1" xmlns="http://www.w3.org/2000/svg" viewBox="0 0 100 100"><path fill="#995933" d="M83.88,48.61a1.48,1.48,0,0,0-.42-.21A33.4,33.4,0,0,0,73.24,25.9c1.56-6.1,1.69-11.09.31-14.49a7.45,7.45,0,0,0-4.08-4.29c-3.34-1.39-7.79-.46-13.23,2.76a1.5,1.5,0,0,0,1.53,2.58C62.22,9.82,66,8.91,68.32,9.89a4.51,4.51,0,0,1,2.45,2.65c1,2.5.95,6.38-.1,11.12a33.4,33.4,0,0,0-43.95,2.28l-.24-.05C14.88,24.61,6.84,26.5,5,30.94a7.24,7.24,0,0,0,.28,5.76c1.55,3.66,5.56,7.81,11.28,12,0,.44,0,.87,0,1.32a33.28,33.28,0,0,0,4.43,16.61,1.48,1.48,0,0,0-.2.45c-2.45,10.53-1.23,17.55,3.45,19.75a7.28,7.28,0,0,0,3.15.67c3.52,0,7.74-2.14,12.16-5.69a33.43,33.43,0,0,0,36.4-10.57l.94.1q2.29.18,4.32.18c7.61,0,12.37-1.86,13.88-5.45C96.94,61.51,93,55.32,83.88,48.61ZM50,19.5a30.36,30.36,0,0,1,19.85,7.37,73.84,73.84,0,0,1-3.09,8.54,1.5,1.5,0,0,0,2.76,1.18q1.66-3.88,2.77-7.38a30.42,30.42,0,0,1,2.26,38.87,108.23,108.23,0,0,1-19-4.13c2.33-3.29,4.55-6.76,6.58-10.29.75-1.3,1.48-2.63,2.19-4a1.5,1.5,0,0,0-2.65-1.41c-.69,1.3-1.41,2.6-2.14,3.87a124.09,124.09,0,0,1-7,10.83q-3.67-1.21-7.51-2.7A126.31,126.31,0,0,1,19.63,47.22,30.54,30.54,0,0,1,50,19.5Zm-42,16a4.4,4.4,0,0,1-.28-3.43c1-2.35,6.44-4.24,16.44-3.42A33.37,33.37,0,0,0,16.85,45.2C12.37,41.77,9.24,38.42,8,35.53ZM43.92,63.09c2.25.88,4.5,1.67,6.73,2.42a90.82,90.82,0,0,1-11.73,12.9A30.54,30.54,0,0,1,19.52,50.76,131.23,131.23,0,0,0,43.92,63.09Zm-18.46,21c-2.88-1.36-3.69-6.55-2.29-14.06A33.7,33.7,0,0,0,36.3,80.56C32,83.84,28.1,85.36,25.46,84.11ZM50,80.5a30.43,30.43,0,0,1-7.81-1,94,94,0,0,0,11.51-13,116.92,116.92,0,0,0,18.56,4.3A30.41,30.41,0,0,1,50,80.5ZM92.26,64.9c-1.13,2.7-6.37,4-14.28,3.49A33.28,33.28,0,0,0,83.43,52C90.08,57.21,93.45,62.07,92.26,64.9Z"/><path  fill="#BA8458" d="M24.19,44.27a111.52,111.52,0,0,0,13.18,7.1,1.5,1.5,0,0,0,1.25-2.72,108.57,108.57,0,0,1-12.82-6.9,1.5,1.5,0,0,0-1.61,2.53Z"/><path fill="#BA8458" d="M50.24,52.29a1.5,1.5,0,0,0,2.05-.53c.75-1.26,1.48-2.55,2.19-3.83a124.22,124.22,0,0,0,7.94-17.42,1.5,1.5,0,0,0-2.82-1,121.09,121.09,0,0,1-7.74,17c-.69,1.26-1.41,2.52-2.14,3.75A1.5,1.5,0,0,0,50.24,52.29Z"/></svg>