<?xml version="1.0" ?><svg id="Layer_1_1_" style="enable-background:new 0 0 64 64;" version="1.1" viewBox="0 0 64 64" xml:space="preserve" xmlns="http://www.w3.org/2000/svg" xmlns:xlink="http://www.w3.org/1999/xlink"><g><path d="M45,47v4h-1.194c-1.583,0-3.137-0.545-4.373-1.534l-2.67-2.136C41.036,45.77,44,41.66,44,37   c0-6.065-4.935-11-11-11s-11,4.935-11,11c0,2.979,1.171,5.768,3.297,7.852l0,0c0,0,0,0,0,0c0,0,0,0,0.001,0.001l0,0   c0.053,0.052,0.116,0.095,0.171,0.147l-0.097,0.389c-0.307,1.227,0.194,2.521,1.247,3.225l2.482,1.654   c0.061,0.04,0.113,0.089,0.17,0.133l-2.229,0.557c-0.142,0.036-0.286,0.061-0.43,0.075l-5.215,0.521l-2.264-4.528   c-0.233-0.466-0.585-0.864-1.02-1.155l-0.196-0.13c-0.81-0.54-1.837-0.654-2.746-0.303c-0.909,0.352-1.593,1.126-1.829,2.071   l-0.052,0.365C12.724,47.312,11.971,47,11.171,47h-0.73c-1.293,0-2.437,0.824-2.847,2.052l-0.152,0.459   c-0.362,1.085-0.084,2.261,0.725,3.07l3.457,3.457c1.203,1.202,2.689,2.121,4.3,2.656l5.221,1.741   C22.267,60.811,23.437,61,24.623,61h16.146c0.897,0,1.795-0.11,2.668-0.329L45,60.28V63h18V47H45z M33,28c4.962,0,9,4.038,9,9   c0,4.244-3.001,7.936-7.142,8.805L32.601,44H34v-1h2c1.654,0,3-1.346,3-3v-1c0-1.654-1.346-3-3-3H30c-0.552,0-1-0.448-1-1v-1   c0-0.552,0.449-1,1-1H36c0.552,0,1,0.448,1,1h2c0-1.654-1.346-3-3-3h-2v-1h-2v1h-2c-1.654,0-3,1.346-3,3v1c0,1.654,1.346,3,3,3H36   c0.552,0,1,0.448,1,1v1c0,0.552-0.449,1-1,1H30c-0.552,0-1-0.448-1-1h-2c0,1.009,0.505,1.899,1.271,2.443   c-0.475,0.029-0.94,0.158-1.359,0.41c-0.159,0.095-0.304,0.207-0.44,0.326C24.881,41.503,24,39.325,24,37   C24,32.038,28.038,28,33,28z M31.965,43.491c-0.278-0.222-0.603-0.38-0.941-0.491H32v0.519L31.965,43.491z M15.293,47.952   c0.088-0.299,0.304-0.533,0.598-0.646c0.308-0.119,0.642-0.082,0.917,0.102l0.195,0.13c0.145,0.097,0.262,0.229,0.34,0.385   l1.923,3.847l-0.479,0.048c-0.904,0.088-1.782-0.226-2.42-0.864l-1.308-1.307L15.293,47.952z M42.952,58.731   C42.237,58.909,41.503,59,40.769,59H24.623c-0.97,0-1.927-0.155-2.846-0.461l-5.221-1.742c-1.318-0.438-2.534-1.189-3.518-2.173   l-3.456-3.457c-0.27-0.27-0.362-0.662-0.241-1.024l0.152-0.459C9.629,49.274,10.01,49,10.441,49h0.73   c0.267,0,0.519,0.104,0.708,0.293l3.073,3.073c1.065,1.065,2.54,1.59,4.034,1.44l7.825-0.782c0.241-0.024,0.479-0.066,0.714-0.125   l2.849-0.712c0.084,0.424,0.081,0.869-0.028,1.305l-0.316,1.266l1.94,0.484l0.316-1.266c0.511-2.044-0.324-4.203-2.077-5.372   l-2.481-1.654c-0.351-0.234-0.519-0.666-0.416-1.074l0.173-0.693c0.064-0.259,0.227-0.478,0.456-0.615   c0.229-0.137,0.496-0.175,0.757-0.112l1.638,0.41c0.138,0.034,0.27,0.1,0.381,0.188l7.468,5.975C39.773,52.3,41.77,53,43.806,53H45   v5.22L42.952,58.731z M61,61H47V49h10v4h2v-4h2V61z" style="fill:#995933;"/><path d="M53,51c-2.206,0-4,1.794-4,4s1.794,4,4,4s4-1.794,4-4S55.206,51,53,51z M53,57c-1.103,0-2-0.897-2-2   s0.897-2,2-2s2,0.897,2,2S54.103,57,53,57z" style="fill:#995933;"/><rect height="2" style="fill:#995933;" width="2" x="57" y="55"/><path d="M23,24c0-6.065-4.935-11-11-11S1,17.935,1,24s4.935,11,11,11S23,30.065,23,24z M3,24   c0-4.962,4.038-9,9-9s9,4.038,9,9s-4.038,9-9,9S3,28.962,3,24z" style="fill:#995933;"/><path d="M13,31v-1h2c1.654,0,3-1.346,3-3V26c0-1.654-1.346-3-3-3H9c-0.552,0-1-0.449-1-1V21   c0-0.552,0.449-1,1-1H15c0.552,0,1,0.449,1,1h2c0-1.654-1.346-3-3-3h-2v-1h-2v1H9c-1.654,0-3,1.346-3,3V22c0,1.654,1.346,3,3,3H15   c0.552,0,1,0.449,1,1V27c0,0.552-0.449,1-1,1H9c-0.552,0-1-0.449-1-1H6c0,1.654,1.346,3,3,3h2v1H13z" style="fill:#995933;"/><rect height="6" style="fill:#995933;" width="2" x="36" y="1"/><rect height="4" style="fill:#995933;" width="2" x="36" y="9"/><rect height="10" style="fill:#995933;" width="2" x="36" y="15"/><rect height="2" style="fill:#995933;" width="2" x="32" y="1"/><rect height="13" style="fill:#995933;" width="2" x="32" y="11"/><rect height="4" style="fill:#995933;" width="2" x="32" y="5"/><rect height="4" style="fill:#995933;" width="2" x="28" y="7"/><rect height="12" style="fill:#995933;" width="2" x="28" y="13"/><rect height="4" style="fill:#995933;" width="2" x="16" y="1"/><rect height="5" style="fill:#995933;" width="2" x="16" y="7"/><rect height="2" style="fill:#995933;" width="2" x="12" y="1"/><rect height="6" style="fill:#995933;" width="2" x="12" y="5"/><rect height="6" style="fill:#995933;" width="2" x="8" y="5"/></g></svg>