<svg id="Слой_1" data-name="Слой 1" xmlns="http://www.w3.org/2000/svg" viewBox="0 0 100 100"> <path fill="#995933" d="M70,7.5H30A4.5,4.5,0,0,0,25.5,12V88A4.5,4.5,0,0,0,30,92.5H70A4.5,4.5,0,0,0,74.5,88V12A4.5,4.5,0,0,0,70,7.5Zm-41.5,13h43v55h-43Zm1.5-10H70A1.5,1.5,0,0,1,71.5,12v5.5h-43V12A1.5,1.5,0,0,1,30,10.5Zm40,79H30A1.5,1.5,0,0,1,28.5,88V78.5h43V88A1.5,1.5,0,0,1,70,89.5Z"/><circle fill="#995933" cx="50" cy="84" r="2"/><path fill="#995933" d="M51.5,45.61v-10c2.86.53,5,2.52,5,4.9a1.5,1.5,0,0,0,3,0c0-4-3.47-7.32-8-7.93V30a1.5,1.5,0,0,0-3,0v2.53c-4.53.61-8,3.93-8,7.93s3.47,7.31,8,7.92v10c-2.86-.53-5-2.52-5-4.9a1.5,1.5,0,0,0-3,0c0,4,3.47,7.32,8,7.93V64a1.5,1.5,0,0,0,3,0V61.47c4.53-.61,8-3.93,8-7.93S56,46.22,51.5,45.61Zm-8-5.14c0-2.38,2.14-4.37,5-4.9v9.79C45.64,44.83,43.5,42.84,43.5,40.46Zm8,18v-9.8c2.86.53,5,2.52,5,4.89S54.36,57.91,51.5,58.44Z"/></svg>